<svg width="23" height="23" viewBox="0 0 23 23" fill="current" xmlns="http://www.w3.org/2000/svg">
<g clip-path="url(#clip0_637_701)">
<path d="M9.88644 10.136H8.83044L8.73444 8.2C8.1051 7.72 7.39577 7.48 6.60644 7.48C5.4331 7.48 4.47844 7.85867 3.74244 8.616C3.0171 9.36267 2.65444 10.3973 2.65444 11.72C2.65444 13.064 3.0171 14.136 3.74244 14.936C4.47844 15.736 5.4651 16.136 6.70244 16.136C7.37444 16.136 7.99844 15.9973 8.57444 15.72C9.1611 15.4427 9.58244 15.1653 9.83844 14.888L10.2064 14.488L10.7184 15.352C10.6864 15.4053 10.6331 15.4747 10.5584 15.56C10.4944 15.6453 10.3398 15.7947 10.0944 16.008C9.8491 16.2213 9.5771 16.4133 9.27844 16.584C8.99044 16.744 8.6011 16.888 8.11044 17.016C7.63044 17.1547 7.12377 17.224 6.59044 17.224C4.9051 17.224 3.59844 16.728 2.67044 15.736C1.74244 14.7333 1.27844 13.3947 1.27844 11.72C1.27844 10.0987 1.75844 8.808 2.71844 7.848C3.6891 6.87733 4.9211 6.392 6.41444 6.392C7.26777 6.392 8.07844 6.65333 8.84644 7.176L9.07044 6.536H9.88644V10.136ZM20.5271 9.656H19.5351L19.4391 8.184C18.8737 7.71467 18.1644 7.48 17.3111 7.48C15.9777 7.48 14.9751 7.83733 14.3031 8.552C13.6311 9.26667 13.2951 10.3067 13.2951 11.672C13.2951 13.048 13.6364 14.136 14.3191 14.936C15.0017 15.736 15.9244 16.136 17.0871 16.136C17.6204 16.136 18.0844 16.072 18.4791 15.944C18.8844 15.8053 19.1884 15.6347 19.3911 15.432C19.5937 15.2187 19.7377 15.048 19.8231 14.92C19.9084 14.7813 19.9724 14.648 20.0151 14.52V12.904H17.5031V12.024H21.1511V17H20.3511L20.1751 15.88C19.4071 16.776 18.2817 17.224 16.7991 17.224C15.2631 17.224 14.0631 16.7227 13.1991 15.72C12.3457 14.7173 11.9191 13.368 11.9191 11.672C11.9191 10.0187 12.3884 8.728 13.3271 7.8C14.2657 6.86133 15.5457 6.392 17.1671 6.392C17.9777 6.392 18.7671 6.648 19.5351 7.16L19.7111 6.536H20.5271V9.656Z" fill="current"/>
<path d="M9.88644 10.136V10.886H10.6364V10.136H9.88644ZM8.83044 10.136L8.08136 10.1731L8.11671 10.886H8.83044V10.136ZM8.73444 8.2L9.48352 8.16286L9.46626 7.81492L9.18927 7.60366L8.73444 8.2ZM3.74244 8.616L3.20459 8.0933L3.20448 8.09341L3.74244 8.616ZM3.74244 14.936L3.1868 15.4398L3.19049 15.4438L3.74244 14.936ZM8.57444 15.72L8.2539 15.0419L8.24908 15.0442L8.57444 15.72ZM9.83844 14.888L10.3895 15.3967L10.3904 15.3958L9.83844 14.888ZM10.2064 14.488L10.8517 14.1056L10.3374 13.2379L9.65449 13.9802L10.2064 14.488ZM10.7184 15.352L11.3616 15.7379L11.5917 15.3544L11.3637 14.9696L10.7184 15.352ZM10.5584 15.56L9.994 15.0661L9.9754 15.0874L9.95844 15.11L10.5584 15.56ZM9.27844 16.584L9.6427 17.2397L9.65054 17.2352L9.27844 16.584ZM8.11044 17.016L7.92112 16.2903L7.91167 16.2928L7.90228 16.2955L8.11044 17.016ZM2.67044 15.736L2.12 16.2454L2.12273 16.2484L2.67044 15.736ZM2.71844 7.848L3.24877 8.37833L3.24877 8.37833L2.71844 7.848ZM8.84644 7.176L8.42447 7.79603L9.23175 8.34543L9.55433 7.42376L8.84644 7.176ZM9.07044 6.536V5.786H8.53833L8.36254 6.28824L9.07044 6.536ZM9.88644 6.536H10.6364V5.786H9.88644V6.536ZM9.88644 9.386H8.83044V10.886H9.88644V9.386ZM9.57952 10.0989L9.48352 8.16286L7.98536 8.23714L8.08136 10.1731L9.57952 10.0989ZM9.18927 7.60366C8.42965 7.02428 7.56061 6.73 6.60644 6.73V8.23C7.23093 8.23 7.78056 8.41572 8.2796 8.79634L9.18927 7.60366ZM6.60644 6.73C5.25524 6.73 4.09818 7.17381 3.20459 8.0933L4.28029 9.1387C4.8587 8.54353 5.61097 8.23 6.60644 8.23V6.73ZM3.20448 8.09341C2.30901 9.01521 1.90444 10.2574 1.90444 11.72H3.40444C3.40444 10.5373 3.7252 9.71012 4.2804 9.13859L3.20448 8.09341ZM1.90444 11.72C1.90444 13.2028 2.30779 14.4703 3.18681 15.4398L4.29806 14.4322C3.72642 13.8017 3.40444 12.9252 3.40444 11.72H1.90444ZM3.19049 15.4438C4.0888 16.4202 5.28732 16.886 6.70244 16.886V15.386C5.64289 15.386 4.86808 15.0518 4.29439 14.4282L3.19049 15.4438ZM6.70244 16.886C7.48118 16.886 8.2171 16.7245 8.8998 16.3958L8.24908 15.0442C7.77977 15.2702 7.2677 15.386 6.70244 15.386V16.886ZM8.89497 16.3981C9.51513 16.1049 10.0375 15.7781 10.3895 15.3967L9.28734 14.3793C9.12739 14.5526 8.80708 14.7804 8.2539 15.0419L8.89497 16.3981ZM10.3904 15.3958L10.7584 14.9958L9.65449 13.9802L9.28649 14.3802L10.3904 15.3958ZM9.56122 14.8704L10.0732 15.7344L11.3637 14.9696L10.8517 14.1056L9.56122 14.8704ZM10.0753 14.9661C10.0787 14.9604 10.0755 14.9665 10.06 14.9867C10.0453 15.0059 10.0238 15.0321 9.994 15.0661L11.1229 16.0539C11.2072 15.9575 11.2951 15.8486 11.3616 15.7379L10.0753 14.9661ZM9.95844 15.11C9.96383 15.1028 9.94481 15.1276 9.87349 15.1964C9.80897 15.2587 9.71956 15.3401 9.6023 15.442L10.5866 16.574C10.8209 16.3702 11.0385 16.1699 11.1584 16.01L9.95844 15.11ZM9.6023 15.442C9.39617 15.6213 9.16475 15.7851 8.90633 15.9328L9.65054 17.2352C9.98946 17.0415 10.302 16.8214 10.5866 16.574L9.6023 15.442ZM8.91421 15.9284C8.7025 16.046 8.37977 16.1706 7.92112 16.2903L8.29975 17.7417C8.82244 17.6054 9.27837 17.442 9.64267 17.2396L8.91421 15.9284ZM7.90228 16.2955C7.49435 16.4133 7.05809 16.474 6.59044 16.474V17.974C7.18945 17.974 7.76653 17.896 8.31859 17.7365L7.90228 16.2955ZM6.59044 16.474C5.05922 16.474 3.97152 16.029 3.21814 15.2236L2.12273 16.2484C3.22535 17.427 4.75099 17.974 6.59044 17.974V16.474ZM3.22087 15.2266C2.44866 14.3922 2.02844 13.2506 2.02844 11.72H0.528438C0.528438 13.5387 1.03621 15.0744 2.12001 16.2454L3.22087 15.2266ZM2.02844 11.72C2.02844 10.2562 2.45622 9.17088 3.24877 8.37833L2.18811 7.31767C1.06065 8.44512 0.528438 9.94117 0.528438 11.72H2.02844ZM3.24877 8.37833C4.06572 7.56137 5.10076 7.142 6.41444 7.142V5.642C4.74145 5.642 3.31248 6.19329 2.18811 7.31767L3.24877 8.37833ZM6.41444 7.142C7.10387 7.142 7.76935 7.35019 8.42447 7.79603L9.26841 6.55597C8.38752 5.95648 7.43167 5.642 6.41444 5.642V7.142ZM9.55433 7.42376L9.77833 6.78376L8.36254 6.28824L8.13854 6.92824L9.55433 7.42376ZM9.07044 7.286H9.88644V5.786H9.07044V7.286ZM9.13644 6.536V10.136H10.6364V6.536H9.13644ZM20.5271 9.656V10.406H21.2771V9.656H20.5271ZM19.5351 9.656L18.7867 9.70481L18.8324 10.406H19.5351V9.656ZM19.4391 8.184L20.1875 8.13519L20.1665 7.81311L19.9181 7.60694L19.4391 8.184ZM14.3031 8.552L14.8495 9.06577L14.8495 9.06577L14.3031 8.552ZM14.3191 14.936L14.8896 14.4492L14.3191 14.936ZM18.4791 15.944L18.7105 16.6575L18.7218 16.6536L18.4791 15.944ZM19.3911 15.432L19.9214 15.9623L19.9282 15.9555L19.9348 15.9486L19.3911 15.432ZM19.8231 14.92L20.4471 15.336L20.4547 15.3247L20.4618 15.3131L19.8231 14.92ZM20.0151 14.52L20.7266 14.7572L20.7651 14.6417V14.52H20.0151ZM20.0151 12.904H20.7651V12.154H20.0151V12.904ZM17.5031 12.904H16.7531V13.654H17.5031V12.904ZM17.5031 12.024V11.274H16.7531V12.024H17.5031ZM21.1511 12.024H21.9011V11.274H21.1511V12.024ZM21.1511 17V17.75H21.9011V17H21.1511ZM20.3511 17L19.6102 17.1164L19.7097 17.75H20.3511V17ZM20.1751 15.88L20.916 15.7636L20.6636 14.1576L19.6056 15.3919L20.1751 15.88ZM13.1991 15.72L12.6279 16.2061L12.6309 16.2096L13.1991 15.72ZM13.3271 7.8L13.8544 8.33336L13.8574 8.33033L13.3271 7.8ZM19.5351 7.16L19.119 7.78404L19.977 8.35601L20.2569 7.3636L19.5351 7.16ZM19.7111 6.536V5.786H19.1433L18.9892 6.3324L19.7111 6.536ZM20.5271 6.536H21.2771V5.786H20.5271V6.536ZM20.5271 8.906H19.5351V10.406H20.5271V8.906ZM20.2835 9.60719L20.1875 8.13519L18.6907 8.23281L18.7867 9.70481L20.2835 9.60719ZM19.9181 7.60694C19.197 7.00823 18.3097 6.73 17.3111 6.73V8.23C18.0191 8.23 18.5505 8.4211 18.96 8.76106L19.9181 7.60694ZM17.3111 6.73C15.8478 6.73 14.6157 7.12465 13.7567 8.03823L14.8495 9.06577C15.3344 8.55001 16.1076 8.23 17.3111 8.23V6.73ZM13.7567 8.03823C12.9101 8.93861 12.5451 10.1911 12.5451 11.672H14.0451C14.0451 10.4222 14.3521 9.59473 14.8495 9.06577L13.7567 8.03823ZM12.5451 11.672C12.5451 13.1705 12.9183 14.4499 13.7485 15.4228L14.8896 14.4492C14.3545 13.8221 14.0451 12.9255 14.0451 11.672H12.5451ZM13.7485 15.4228C14.5898 16.4087 15.731 16.886 17.0871 16.886V15.386C16.1178 15.386 15.4136 15.0633 14.8896 14.4492L13.7485 15.4228ZM17.0871 16.886C17.6777 16.886 18.2232 16.8154 18.7104 16.6574L18.2477 15.2306C17.9456 15.3286 17.5631 15.386 17.0871 15.386V16.886ZM18.7218 16.6536C19.1864 16.4947 19.6078 16.276 19.9214 15.9623L18.8607 14.9017C18.769 14.9934 18.5824 15.116 18.2363 15.2344L18.7218 16.6536ZM19.9348 15.9486C20.1455 15.7268 20.3253 15.5188 20.4471 15.336L19.199 14.504C19.1502 14.5772 19.042 14.7106 18.8473 14.9154L19.9348 15.9486ZM20.4618 15.3131C20.5713 15.1351 20.6624 14.9496 20.7266 14.7572L19.3036 14.2828C19.2824 14.3464 19.2455 14.4276 19.1843 14.5269L20.4618 15.3131ZM20.7651 14.52V12.904H19.2651V14.52H20.7651ZM20.0151 12.154H17.5031V13.654H20.0151V12.154ZM18.2531 12.904V12.024H16.7531V12.904H18.2531ZM17.5031 12.774H21.1511V11.274H17.5031V12.774ZM20.4011 12.024V17H21.9011V12.024H20.4011ZM21.1511 16.25H20.3511V17.75H21.1511V16.25ZM21.092 16.8836L20.916 15.7636L19.4342 15.9964L19.6102 17.1164L21.092 16.8836ZM19.6056 15.3919C19.0154 16.0805 18.1235 16.474 16.7991 16.474V17.974C18.44 17.974 19.7988 17.4715 20.7445 16.3681L19.6056 15.3919ZM16.7991 16.474C15.4425 16.474 14.4652 16.0404 13.7672 15.2304L12.6309 16.2096C13.6609 17.4049 15.0836 17.974 16.7991 17.974V16.474ZM13.7702 15.2339C13.0623 14.4021 12.6691 13.2423 12.6691 11.672H11.1691C11.1691 13.4937 11.6292 15.0326 12.6279 16.2061L13.7702 15.2339ZM12.6691 11.672C12.6691 10.1655 13.0922 9.08683 13.8544 8.33335L12.7998 7.26665C11.6846 8.36917 11.1691 9.87179 11.1691 11.672H12.6691ZM13.8574 8.33033C14.6254 7.56231 15.6978 7.142 17.1671 7.142V5.642C15.3937 5.642 13.906 6.16036 12.7967 7.26967L13.8574 8.33033ZM17.1671 7.142C17.8098 7.142 18.4566 7.34243 19.119 7.78404L19.9511 6.53596C19.0775 5.95357 18.1456 5.642 17.1671 5.642V7.142ZM20.2569 7.3636L20.4329 6.73959L18.9892 6.3324L18.8132 6.9564L20.2569 7.3636ZM19.7111 7.286H20.5271V5.786H19.7111V7.286ZM19.7771 6.536V9.656H21.2771V6.536H19.7771Z" fill="current"/>
</g>
<defs>
<clipPath id="clip0_637_701">
<rect width="22.5" height="22.5" fill="white"/>
</clipPath>
</defs>
</svg>
